<?xml version="1.0" ?><svg height="32px" version="1.1" viewBox="0 0 32 32" width="32px" xmlns="http://www.w3.org/2000/svg" xmlns:xlink="http://www.w3.org/1999/xlink"><title/><desc/><defs/><g fill="none" fill-rule="evenodd" id="Overcast" stroke="none" stroke-width="1"><g stroke="#979797" stroke-width="2" transform="translate(3.000000, 6.000000)"><g id="Group-3" transform="translate(2.000000, 0.000000)"><path d="M8,7 C8,4.790861 6.209139,3 4,3 C1.790861,3 0,4.790861 0,7 C0,7.74909293 0.205914623,8.45009192 0.564228738,9.04948184" id="Oval-3"/><path d="M18.0816219,3.5314731 C16.8758322,1.42182409 14.6039585,0 12,0 C9.53738965,0 7.37179014,1.27165453 6.1240426,3.19412246" id="Oval-3" stroke-linecap="round"/></g><g id="Group-2" transform="translate(0.000000, 3.000000)"><path d="M10.1441195,5.03385852 C9.29274212,4.62749472 8.33960485,4.4 7.33333333,4.4 C3.72507297,4.4 0.8,7.32507297 0.8,10.9333333 C0.8,14.5415937 3.72507297,17.4666667 7.33333333,17.4666667 C9.11597284,17.4666667 10.7318603,16.7527163 11.9106557,15.5951556" id="Oval"/><path d="M10.4628116,13.7934799 C11.974939,16.0108696 14.5212905,17.4666667 17.4076616,17.4666667 C22.0468535,17.4666667 25.8076616,13.7058586 25.8076616,9.06666667 C25.8076616,4.42747477 22.0468535,0.666666667 17.4076616,0.666666667 C13.3847405,0.666666667 10.0223343,3.49466753 9.2,7.27111244" id="Oval" stroke-linecap="round"/></g></g></g></svg>