<?xml version="1.0" encoding="UTF-8" standalone="no"?>
<svg
   xmlns:dc="http://purl.org/dc/elements/1.1/"
   xmlns:cc="http://creativecommons.org/ns#"
   xmlns:rdf="http://www.w3.org/1999/02/22-rdf-syntax-ns#"
   xmlns:svg="http://www.w3.org/2000/svg"
   xmlns="http://www.w3.org/2000/svg"
   xmlns:sodipodi="http://sodipodi.sourceforge.net/DTD/sodipodi-0.dtd"
   xmlns:inkscape="http://www.inkscape.org/namespaces/inkscape"
   height="32px"
   version="1.1"
   viewBox="0 0 32 32"
   width="32px"
   id="svg13"
   sodipodi:docname="sunny.svg"
   inkscape:version="0.92.2 5c3e80d, 2017-08-06">
  <metadata
     id="metadata17">
    <rdf:RDF>
      <cc:Work
         rdf:about="">
        <dc:format>image/svg+xml</dc:format>
        <dc:type
           rdf:resource="http://purl.org/dc/dcmitype/StillImage" />
      </cc:Work>
    </rdf:RDF>
  </metadata>
  <sodipodi:namedview
     pagecolor="#ffffff"
     bordercolor="#666666"
     borderopacity="1"
     objecttolerance="10"
     gridtolerance="10"
     guidetolerance="10"
     inkscape:pageopacity="0"
     inkscape:pageshadow="2"
     inkscape:window-width="1330"
     inkscape:window-height="801"
     id="namedview15"
     showgrid="false"
     inkscape:zoom="7.375"
     inkscape:cx="16"
     inkscape:cy="16"
     inkscape:window-x="0"
     inkscape:window-y="0"
     inkscape:window-maximized="0"
     inkscape:current-layer="g10" />
  <title
     id="title2" />
  <desc
     id="desc4" />
  <defs
     id="defs6" />
  <g
     fill="none"
     fill-rule="evenodd"
     id="Sunny"
     stroke="none"
     stroke-width="1">
    <g
       stroke="#979797"
       stroke-width="2"
       transform="translate(2.000000, 2.000000)"
       id="g10">
      <circle
         cx="14"
         cy="14"
         id="Oval-4"
         r="8" />
      <path
         d="M14,0 L14,3 M23.8994949,4.10050506 L21.7781746,6.22182541 M28,14 L25,14 M23.8994949,23.8994949 L21.7781746,21.7781746 M14,28 L14,25 M4.10050506,23.8994949 L6.22182541,21.7781746 M3.83475851e-17,14 L3,14 M4.10050506,4.10050506 L6.22182541,6.22182541"
         id="Path-7"
         stroke-linecap="round" />
      <path
         style="fill:#ffdd55;stroke-width:0.27118644"
         d="M 13.586441,24.577132 C 11.977616,24.097384 10.931404,23.469962 9.7156769,22.255799 8.9639551,21.505045 8.4672125,20.862458 8.1186598,20.189896 5.0204693,14.211665 9.2664879,7.1181099 15.959322,7.090996 c 1.555034,-0.0063 2.412954,0.1952247 3.932203,0.9236699 2.195381,1.0526344 3.820806,2.8998711 4.60431,5.2326291 0.324574,0.966368 0.383642,1.36537 0.389434,2.630671 0.0082,1.783193 -0.229114,2.778249 -1.034663,4.338983 -0.71685,1.388887 -2.205999,2.898 -3.581056,3.629067 -2.003564,1.065221 -4.607434,1.350079 -6.683109,0.731116 z m 4.503972,-1.849707 c 3.278636,-1.012668 5.431744,-4.490112 4.857803,-7.845746 -0.516186,-3.017952 -3.001204,-5.4371294 -6.015813,-5.8564231 -4.19408,-0.583343 -7.9561318,2.7092581 -7.9561318,6.9633211 0,3.089129 1.8829998,5.673464 4.8813558,6.699447 1.178611,0.403301 2.999734,0.420251 4.232786,0.0394 z"
         id="path21"
         inkscape:connector-curvature="0"
         transform="translate(-2,-2)" />
      <path
         style="fill:#ffdd55;stroke-width:0.27118644"
         d="M 6.509136,7.8366267 C 5.4099755,6.7374662 5.179661,6.4357397 5.179661,6.0949301 5.179661,5.4064703 5.8989231,4.9714339 6.5102841,5.29012 6.7106447,5.3945626 7.3779661,5.9968449 7.9932203,6.6285252 9.2160225,7.8839734 9.3890053,8.3465879 8.840678,8.8949153 8.3030866,9.4325066 7.9403858,9.2678765 6.509136,7.8366267 Z"
         id="path23"
         inkscape:connector-curvature="0"
         transform="translate(-2,-2)" />
      <path
         style="fill:#ffdd55;stroke-width:0.27118644"
         d="M 15.349153,5.640678 C 15.103928,5.3954534 15.077966,5.1887006 15.077966,3.4810278 c 0,-1.8786357 0.0019,-1.8899262 0.357269,-2.1694915 0.469175,-0.36905299 0.801622,-0.35480216 1.208217,0.051792 0.318992,0.3189924 0.332819,0.4055496 0.332819,2.083409 0,1.5657093 -0.02968,1.7883204 -0.281028,2.1078582 -0.343832,0.4371116 -0.955918,0.4762545 -1.34609,0.086083 z"
         id="path25"
         inkscape:connector-curvature="0"
         transform="translate(-2,-2)" />
      <path
         style="fill:#ffdd55;stroke-width:0.27118644"
         d="M 23.139599,8.833282 C 22.956549,8.6502312 22.80678,8.3674358 22.80678,8.2048479 c 0,-0.3382907 2.315782,-2.7878608 2.82118,-2.9841655 0.414707,-0.1610792 1.079964,0.1812395 1.187889,0.6112477 0.123685,0.4927979 -0.216388,1.0009028 -1.485138,2.2189533 -1.283128,1.2318538 -1.621007,1.3525032 -2.191112,0.7823986 z"
         id="path27"
         inkscape:connector-curvature="0"
         transform="translate(-2,-2)" />
      <path
         style="fill:#ffdd55;stroke-width:0.27118644"
         d="m 26.332203,16.623729 c -0.341835,-0.341836 -0.346517,-0.82608 -0.01198,-1.239216 0.250351,-0.30917 0.324877,-0.320106 2.181472,-0.320106 1.856594,0 1.93112,0.01094 2.181472,0.320106 0.334536,0.413136 0.329855,0.89738 -0.01198,1.239216 -0.245359,0.245359 -0.451977,0.271186 -2.169491,0.271186 -1.717514,0 -1.924132,-0.02583 -2.169493,-0.271186 z"
         id="path29"
         inkscape:connector-curvature="0"
         transform="translate(-2,-2)" />
      <path
         style="fill:#ffdd55;stroke-width:0.27118644"
         d="M 24.120296,25.456282 C 23.340522,24.662603 22.80678,24.00886 22.80678,23.847449 c 0,-0.467105 0.514498,-0.986432 0.977258,-0.986432 0.341008,0 0.642999,0.223391 1.689963,1.250113 1.339402,1.313504 1.530013,1.6414 1.256213,2.160986 -0.221726,0.420768 -0.384318,0.516544 -0.881104,0.519028 -0.347595,0.0017 -0.629427,-0.215872 -1.728814,-1.334862 z"
         id="path31"
         inkscape:connector-curvature="0"
         transform="translate(-2,-2)" />
      <path
         style="fill:#ffdd55;stroke-width:0.27118644"
         d="m 15.755932,30.899059 c -0.626594,-0.226216 -0.677966,-0.403068 -0.677966,-2.333972 0,-2.119649 0.115866,-2.451302 0.855146,-2.447756 0.891708,0.0043 1.043159,0.364693 1.043159,2.482462 0,1.41345 -0.03869,1.733553 -0.237288,1.963233 -0.265088,0.306577 -0.675785,0.446964 -0.983051,0.336033 z"
         id="path33"
         inkscape:connector-curvature="0"
         transform="translate(-2,-2)" />
      <path
         style="fill:#ffdd55;stroke-width:0.27118644"
         d="M 5.3907395,26.491864 C 4.9590446,25.875533 5.1032908,25.57608 6.5041208,24.180507 c 1.3985981,-1.39335 1.6957176,-1.536141 2.3063869,-1.108412 0.2174474,0.152307 0.3013567,0.348339 0.3013567,0.704042 0,0.441185 -0.1325608,0.625524 -1.2620599,1.755023 -1.1294991,1.1295 -1.3138385,1.26206 -1.7550233,1.26206 -0.3557032,0 -0.5517356,-0.08391 -0.7040417,-0.301356 z"
         id="path35"
         inkscape:connector-curvature="0"
         transform="translate(-2,-2)" />
      <path
         style="fill:#ffdd55;stroke-width:0.27118644"
         d="m 1.3394246,16.650437 c -0.3176319,-0.35098 -0.2889603,-1.013774 0.057436,-1.327727 0.2397838,-0.217326 0.5427829,-0.265525 1.9099614,-0.303824 1.8476255,-0.05176 2.3081557,0.06988 2.5592005,0.675958 0.1456977,0.351745 0.1322347,0.450726 -0.1044627,0.768029 -0.2703998,0.362482 -0.2812133,0.364427 -2.2331451,0.40163 -1.766001,0.03366 -1.9841027,0.01233 -2.1889901,-0.214066 z"
         id="path37"
         inkscape:connector-curvature="0"
         transform="translate(-2,-2)" />
    </g>
  </g>
</svg>
